# xmcd
#
# Track frame offsets:
#	150
#	13085
#	29914
#	51339
#	68323
#	81978
#	96439
#	114831
#	127682
#	145803
#	161833
#
# Disc length: 2319 seconds
#
# Revision: 1
# Processed by: cddbd v1.4PL0 Copyright (c) Steve Scherf et al.
# Submitted via: EasyCDDAExtractor 6.0.0.1
#
DISCID=90090d0b
DTITLE=Kalii Palmer - Freeze The Night
DYEAR=2000
DGENRE=Country
TTITLE0=American Boys
TTITLE1=Freeze The Night
TTITLE2=One Step Two Step
TTITLE3=Refresh My Memory
TTITLE4=Hell To Pay
TTITLE5=I Should've Listened
TTITLE6=All Alone
TTITLE7=You've Got Me
TTITLE8=Memories
TTITLE9=Testify To Love
TTITLE10=I'm Sorry
EXTD=
EXTT0=
EXTT1=
EXTT2=
EXTT3=
EXTT4=
EXTT5=
EXTT6=
EXTT7=
EXTT8=
EXTT9=
EXTT10=
PLAYORDER=
